<svg width="1572" height="795" viewBox="0 0 1572 795" fill="none" xmlns="http://www.w3.org/2000/svg">
    <defs>
        <!-- Define new gradients for galaxy theme -->
        <radialGradient id="paint0_radial_galaxy" cx="0" cy="0" r="1" gradientUnits="userSpaceOnUse" gradientTransform="translate(1123.11 259.246) rotate(90) scale(238.243)">
            <stop offset="0%" stop-color="#6C5B7B"/>
            <stop offset="50%" stop-color="#355C7D" stop-opacity="0.7"/>
            <stop offset="100%" stop-color="#8244FF" stop-opacity="0"/>
        </radialGradient>
        <radialGradient id="paint1_radial_galaxy" cx="0" cy="0" r="1" gradientUnits="userSpaceOnUse" gradientTransform="translate(753.111 565.246) rotate(90) scale(238.243)">
            <stop offset="0%" stop-color="#5B6C5D"/>
            <stop offset="50%" stop-color="#2F4F4F" stop-opacity="0.7"/>
            <stop offset="100%" stop-color="#8244FF" stop-opacity="0"/>
        </radialGradient>
        <linearGradient id="paint2_linear_galaxy" x1="1356.37" y1="-139.487" x2="1240.56" y2="384.088" gradientUnits="userSpaceOnUse">
            <stop offset="0%" stop-color="#F926AE"/>
            <stop offset="22%" stop-color="#E0336B"/>
            <stop offset="100%" stop-color="#F926AE" stop-opacity="0"/>
        </linearGradient>
    </defs>
    <!-- Apply the galaxy theme -->
    <mask id="mask0_galaxy" style="mask-type:alpha" maskUnits="userSpaceOnUse" x="0" y="0" width="1572" height="795">
        <rect width="1572" height="795" fill="#0F0F0F"/> <!-- Adjusting background to black -->
    </mask>
    <g mask="url(#mask0_galaxy)">
        <!-- Adjusting colors to galaxy theme -->
        <path fill-rule="evenodd" clip-rule="evenodd" d="M862.574 -54.9121V0.955067L808.953 0.955063L808.953 1.95506L862.574 1.95507V74.6094H808.953L808.953 75.6094H862.574V148.264H808.953L808.953 149.264H862.574V221.918H808.953L808.953 222.918H862.574V295.572H808.953L808.953 296.572H862.574V369.227H808.953L808.953 370.227H862.574V442.881H808.953L808.953 443.881H862.574V516.535H808.953L808.953 517.535H862.574V573.404H863.574V517.535H936.23V573.404H937.23V517.535H1009.88V573.404H1010.88V517.535H1083.53V573.404H1084.53V517.535L1157.19 517.535V573.404H1158.19V517.535H1230.85V573.404H1231.85V517.535H1304.5V573.404H1305.5V517.535H1378.15V573.404H1379.15V517.535H1437.27V516.535H1379.15V443.881H1437.27V442.881H1379.15V370.227H1437.27V369.227H1379.15V296.572H1437.27V295.572H1379.15V222.918H1437.27V221.918H1379.15V149.264H1437.27V148.264H1379.15V75.6094H1437.27V74.6094H1379.15V1.95509L1437.27 1.95509V0.95509L1379.15 0.955086V-54.9121H1378.15V0.955086H1305.5V-54.9121H1304.5V0.955086L1231.85 0.955082V-54.9121H1230.85V0.955082L1158.19 0.955078V-54.9121H1157.19V0.955078L1084.53 0.955074V-54.9121H1083.53V0.955074L1010.88 0.95507V-54.9121H1009.88V0.95507L937.23 0.955067V-54.9121H936.23V0.955067H863.574V-54.9121H862.574ZM1378.15 516.535V443.881H1305.5V516.535H1378.15ZM1304.5 516.535V443.881H1231.85V516.535H1304.5ZM1230.85 516.535V443.881H1158.19V516.535H1230.85ZM1157.19 516.535V443.881H1084.53V516.535L1157.19 516.535ZM1083.53 516.535V443.881H1010.88V516.535H1083.53ZM1009.88 516.535V443.881H937.23V516.535H1009.88ZM936.23 516.535V443.881H863.574V516.535H936.23ZM936.23 442.881H863.574V370.227H936.23V442.881ZM1009.88 442.881H937.23V370.227H1009.88V442.881ZM1083.53 442.881H1010.88V370.227H1083.53V442.881ZM1157.19 442.881H1084.53V370.227H1157.19V442.881ZM1230.85 442.881H1158.19V370.227H1230.85V442.881ZM1304.5 442.881H1231.85V370.227H1304.5V442.881ZM1378.15 442.881H1305.5V370.227H1378.15V442.881ZM1378.15 369.227V296.572H1305.5V369.227H1378.15ZM1304.5 369.227V296.572H1231.85V369.227H1304.5ZM1230.85 369.227V296.572H1158.19V369.227H1230.85ZM1157.19 369.227V296.572H1084.53V369.227H1157.19ZM1083.53 369.227V296.572H1010.88V369.227H1083.53ZM1009.88 369.227V296.572H937.23V369.227H1009.88ZM936.23 369.227V296.572H863.574V369.227H936.23ZM936.23 295.572H863.574V222.918H936.23V295.572ZM1009.88 295.572H937.23V222.918H1009.88V295.572ZM1083.53 295.572H1010.88V222.918H1083.53V295.572ZM1157.19 295.572H1084.53V222.918H1157.19V295.572ZM1230.85 295.572H1158.19V222.918H1230.85V295.572ZM1304.5 295.572H1231.85V222.918H1304.5V295.572ZM1378.15 295.572H1305.5V222.918H1378.15V295.572ZM1378.15 221.918V149.264H1305.5V221.918H1378.15ZM1304.5 221.918V149.264L1231.85 149.264V221.918H1304.5ZM1230.85 221.918V149.264H1158.19V221.918H1230.85ZM1157.19 221.918V149.264H1084.53V221.918H1157.19ZM1083.53 221.918V149.264H1010.88V221.918H1083.53ZM1009.88 221.918V149.264L937.23 149.264V221.918H1009.88ZM936.23 221.918V149.264H863.574V221.918H936.23ZM936.23 148.264H863.574V75.6094H936.23V148.264ZM1009.88 148.264L937.23 148.264V75.6094L1009.88 75.6094V148.264ZM1083.53 148.264H1010.88V75.6094H1083.53V148.264ZM1157.19 148.264H1084.53V75.6094H1157.19V148.264ZM1230.85 148.264H1158.19V75.6094H1230.85V148.264ZM1304.5 148.264L1231.85 148.264V75.6094L1304.5 75.6094V148.264ZM1378.15 148.264H1305.5V75.6094H1378.15V148.264ZM1378.15 74.6094V1.95509H1305.5V74.6094H1378.15ZM1304.5 74.6094V1.95509L1231.85 1.95508V74.6094L1304.5 74.6094ZM1230.85 74.6094V1.95508L1158.19 1.95508V74.6094H1230.85ZM1157.19 74.6094V1.95508L1084.53 1.95507V74.6094H1157.19ZM1083.53 74.6094V1.95507L1010.88 1.95507V74.6094H1083.53ZM1009.88 74.6094V1.95507L937.23 1.95507V74.6094L1009.88 74.6094ZM936.23 74.6094V1.95507H863.574V74.6094H936.23Z" fill="url(#paint0_radial_galaxy)"/>
        <path fill-rule="evenodd" clip-rule="evenodd" d="M492.574 251.088V306.955L438.953 306.955L438.953 307.955L492.574 307.955V380.609H438.953L438.953 381.609H492.574V454.264H438.953L438.953 455.264H492.574V527.918H438.953L438.953 528.918H492.574V601.572H438.953L438.953 602.572H492.574V675.227H438.953L438.953 676.227H492.574V748.881H438.953L438.953 749.881H492.574V822.535H438.953L438.953 823.535H492.574V879.404H493.574V823.535H566.23V879.404H567.23V823.535H639.878V879.404H640.878V823.535H713.535V879.404H714.535V823.535L787.191 823.535V879.404H788.191V823.535H860.847V879.404H861.847V823.535H934.496V879.404H935.496V823.535H1008.15V879.404H1009.15V823.535H1067.27V822.535H1009.15V749.881H1067.27V748.881H1009.15V676.227H1067.27V675.227H1009.15V602.572H1067.27V601.572H1009.15V528.918H1067.27V527.918H1009.15V455.264H1067.27V454.264H1009.15V381.609H1067.27V380.609H1009.15V307.955L1067.27 307.955V306.955L1009.15 306.955V251.088H1008.15V306.955H935.496V251.088H934.496V306.955L861.847 306.955V251.088H860.847V306.955L788.191 306.955V251.088H787.191V306.955L714.535 306.955V251.088H713.535V306.955L640.878 306.955V251.088H639.878V306.955L567.23 306.955V251.088H566.23V306.955H493.574V251.088H492.574ZM1008.15 822.535V749.881H935.496V822.535H1008.15ZM934.496 822.535V749.881H861.847V822.535H934.496ZM860.847 822.535V749.881H788.191V822.535H860.847ZM787.191 822.535V749.881H714.535V822.535L787.191 822.535ZM713.535 822.535V749.881H640.878V822.535H713.535ZM639.878 822.535V749.881H567.23V822.535H639.878ZM566.23 822.535V749.881H493.574V822.535H566.23ZM566.23 748.881H493.574V676.227H566.23V748.881ZM639.878 748.881H567.23V676.227H639.878V748.881ZM713.535 748.881H640.878V676.227H713.535V748.881ZM787.191 748.881H714.535V676.227H787.191V748.881ZM860.847 748.881H788.191V676.227H860.847V748.881ZM934.496 748.881H861.847V676.227H934.496V748.881ZM1008.15 748.881H935.496V676.227H1008.15V748.881ZM1008.15 675.227V602.572H935.496V675.227H1008.15ZM934.496 675.227V602.572H861.847V675.227H934.496ZM860.847 675.227V602.572H788.191V675.227H860.847ZM787.191 675.227V602.572H714.535V675.227H787.191ZM713.535 675.227V602.572H640.878V675.227H713.535ZM639.878 675.227V602.572H567.23V675.227H639.878ZM566.23 675.227V602.572H493.574V675.227H566.23ZM566.23 601.572H493.574V528.918H566.23V601.572ZM639.878 601.572H567.23V528.918H639.878V601.572ZM713.535 601.572H640.878V528.918H713.535V601.572ZM787.191 601.572H714.535V528.918H787.191V601.572ZM860.847 601.572H788.191V528.918H860.847V601.572ZM934.496 601.572H861.847V528.918H934.496V601.572ZM1008.15 601.572H935.496V528.918H1008.15V601.572ZM1008.15 527.918V455.264H935.496V527.918H1008.15ZM934.496 527.918V455.264L861.847 455.264V527.918H934.496ZM860.847 527.918V455.264H788.191V527.918H860.847ZM787.191 527.918V455.264H714.535V527.918H787.191ZM713.535 527.918V455.264H640.878V527.918H713.535ZM639.878 527.918V455.264L567.23 455.264V527.918H639.878ZM566.23 527.918V455.264H493.574V527.918H566.23ZM566.23 454.264H493.574V381.609H566.23V454.264ZM639.878 454.264L567.23 454.264V381.609L639.878 381.609V454.264ZM713.535 454.264H640.878V381.609H713.535V454.264ZM787.191 454.264H714.535V381.609H787.191V454.264ZM860.847 454.264H788.191V381.609H860.847V454.264ZM934.496 454.264L861.847 454.264V381.609L934.496 381.609V454.264ZM1008.15 454.264H935.496V381.609H1008.15V454.264ZM1008.15 380.609V307.955H935.496V380.609H1008.15ZM934.496 380.609V307.955L861.847 307.955V380.609L934.496 380.609ZM860.847 380.609V307.955L788.191 307.955V380.609H860.847ZM787.191 380.609V307.955L714.535 307.955V380.609H787.191ZM713.535 380.609V307.955L640.878 307.955V380.609H713.535ZM639.878 380.609V307.955L567.23 307.955V380.609L639.878 380.609ZM566.23 380.609V307.955H493.574V380.609H566.23Z" fill="url(#paint1_radial_galaxy)"/>
        <g opacity="0.4" filter="url(#filter0_f_340_660)">
            <path fill-rule="evenodd" clip-rule="evenodd" d="M429.574 141.088V196.955L375.953 196.955L375.953 197.955L429.574 197.955V270.609H375.953L375.953 271.609H429.574V344.264H375.953L375.953 345.264H429.574V417.918H375.953L375.953 418.918H429.574V491.572H375.953L375.953 492.572H429.574V565.227H375.953L375.953 566.227H429.574V638.881H375.953L375.953 639.881H429.574V712.535H375.953L375.953 713.535H429.574V785.404H430.574V713.535H503.23V785.404H504.23V713.535H576.878V785.404H577.878V713.535H650.535V785.404H651.535V713.535H724.191V785.404H725.191V713.535H783.313V712.535H725.191V639.881H783.313V638.881H725.191V566.227H783.313V565.227H725.191V492.572H783.313V491.572H725.191V418.918H783.313V417.918H725.191V345.264H783.313V344.264H725.191V271.609H783.313V270.609H725.191V197.955L783.313 197.955V196.955L725.191 196.955V141.088H724.191V196.955H651.535V141.088H650.535V196.955L577.878 196.955V141.088H576.878V196.955L504.23 196.955V141.088H503.23V196.955L430.574 196.955V141.088H429.574ZM783.313 712.535V639.881H725.191V712.535H783.313ZM724.191 712.535V639.881H650.535V712.535H724.191ZM651.535 712.535V639.881H577.878V712.535H651.535ZM578.878 712.535V639.881H505.23V712.535H578.878ZM505.23 712.535V639.881H431.574V712.535H505.23ZM505.23 638.881H431.574V566.227H505.23V638.881ZM578.878 638.881H505.23V566.227H578.878V638.881ZM651.535 638.881H578.878V566.227H651.535V638.881ZM724.191 638.881H651.535V566.227H724.191V638.881ZM783.313 638.881H724.191V566.227H783.313V638.881ZM783.313 565.227V492.572H724.191V565.227H783.313ZM724.191 565.227V492.572H651.535V565.227H724.191ZM651.535 565.227V492.572H578.878V565.227H651.535ZM578.878 565.227V492.572H505.23V565.227H578.878ZM505.23 565.227V492.572H431.574V565.227H505.23ZM505.23 491.572H431.574V418.918H505.23V491.572ZM578.878 491.572H505.23V418.918H578.878V491.572ZM651.535 491.572H578.878V418.918H651.535V491.572ZM724.191 491.572H651.535V418.918H724.191V491.572ZM783.313 491.572H724.191V418.918H783.313V491.572ZM783.313 417.918V345.264H724.191V417.918H783.313ZM724.191 417.918V345.264H651.535V417.918H724.191ZM651.535 417.918V345.264H578.878V417.918H651.535ZM578.878 417.918V345.264H505.23V417.918H578.878ZM505.23 417.918V345.264H431.574V417.918H505.23ZM505.23 344.264H431.574V271.609H505.23V344.264ZM578.878 344.264L505.23 344.264V271.609L578.878 271.609V344.264ZM651.535 344.264H578.878V271.609H651.535V344.264ZM724.191 344.264H651.535V271.609H724.191V344.264ZM783.313 344.264L724.191 344.264V271.609L783.313 271.609V344.264ZM783.313 270.609V197.955H724.191V270.609H783.313ZM724.191 270.609V197.955L651.535 197.955V270.609H724.191ZM651.535 270.609V197.955H578.878V270.609H651.535ZM578.878 270.609V197.955H505.23V270.609H578.878ZM505.23 270.609V197.955H431.574V270.609H505.23Z" fill="url(#paint2_linear_galaxy)"/>
        </g>
    </g>
    <defs>
        <filter id="filter0_f_340_660" x="339.953" y="139.088" width="443.359" height="647.346" filterUnits="userSpaceOnUse" color-interpolation-filters="sRGB">
            <feFlood flood-opacity="0" result="BackgroundImageFix"/>
            <feBlend mode="normal" in="SourceGraphic" in2="BackgroundImageFix" result="shape"/>
            <feGaussianBlur stdDeviation="30" result="effect1_foregroundBlur"/>
        </filter>
    </defs>
</svg>
